<?xml version="1.0" standalone="no"?>
<!DOCTYPE svg PUBLIC "-//W3C//DTD SVG 20010904//EN"
 "http://www.w3.org/TR/2001/REC-SVG-20010904/DTD/svg10.dtd">
<svg version="1.0" xmlns="http://www.w3.org/2000/svg"
 width="16.000000pt" height="16.000000pt" viewBox="0 0 16.000000 16.000000"
 preserveAspectRatio="xMidYMid meet">
<metadata>
Created by potrace 1.11, written by Peter Selinger 2001-2013
</metadata>
<g transform="translate(0.000000,16.000000) scale(0.002744,-0.002744)"
fill="#000000" stroke="none">
<path d="M2840 5823 c-33 -13 -58 -47 -184 -258 -72 -121 -133 -225 -136 -231
-4 -7 -397 -674 -481 -814 -5 -8 -28 -49 -52 -90 -40 -68 -128 -216 -292 -494
-32 -54 -59 -110 -60 -125 -3 -39 12 -69 150 -307 70 -121 139 -239 153 -264
14 -25 90 -157 170 -295 80 -137 156 -270 170 -295 14 -25 71 -124 127 -220
265 -456 458 -794 462 -809 2 -9 -58 -127 -135 -261 -76 -135 -150 -265 -164
-290 -14 -25 -119 -209 -233 -410 -115 -201 -219 -385 -233 -410 -14 -25 -28
-50 -33 -55 -4 -6 -11 -29 -15 -51 -16 -105 99 -181 186 -121 31 20 84 105
207 328 16 30 84 148 150 264 66 116 131 230 145 255 52 94 156 276 177 310
11 19 24 42 28 50 5 11 199 352 333 585 87 153 352 610 413 715 27 47 58 101
69 120 10 19 27 49 37 65 10 17 98 169 195 338 98 170 214 370 258 445 130
219 159 279 152 315 -7 41 -27 72 -61 94 -25 17 -97 18 -1190 18 -704 0 -1163
4 -1163 9 0 5 47 89 104 185 57 97 112 190 122 208 11 18 69 116 129 218 61
102 118 200 129 218 10 18 70 120 133 227 64 107 142 240 175 295 32 55 63
107 68 115 106 174 160 276 160 303 0 33 -20 75 -47 99 -20 19 -97 32 -123 21z"/>
</g>
</svg>
